# xmcd CD database file
#
# Track frame offsets:
#	150
#	9950
#	21510
#	39505
#	54412
#	73347
#	90087
#	106975
#	127472
#	141800
#	157340
#	174658
#	189432
#	203410
#	220341
#	234789
#	253152
#	265483
#	281578
#	296374
#
# Disc length: 4193 seconds
#
# Revision: 0
# Processed by: cddbd v1.5.2PL0 Copyright (c) Steve Scherf et al.
# Submitted via: CDex 1.51
#
DISCID=29105f14
DTITLE=PURE PRAIRIE LEAGUE - If The Shoe Fits (1976) and Just Fly (1978)
DYEAR=2013
DGENRE=Country
TTITLE0=That'll Be The Day
TTITLE1=I Can Only Think Of You
TTITLE2=Sun Shone Lightly
TTITLE3=Long Cold Winter
TTITLE4=Lucille Crawfield
TTITLE5=Gimme Another Chance
TTITLE6=Aren't You Mine
TTITLE7=You Are So Near To Me
TTITLE8=Out In The Street
TTITLE9=Goin' Home
TTITLE10=Place In The Middle
TTITLE11=Slim Pickin's
TTITLE12=Love Will Grow
TTITLE13=You Don't Have To Be Alone
TTITLE14=Love Is Falling
TTITLE15=Just Fly
TTITLE16=Lifetime
TTITLE17=Working In The Coal Mine
TTITLE18=My Young Girl
TTITLE19=Bad Dream
EXTD=YEAR: 2013
EXTT0=
EXTT1=
EXTT2=
EXTT3=
EXTT4=
EXTT5=
EXTT6=
EXTT7=
EXTT8=
EXTT9=
EXTT10=
EXTT11=
EXTT12=
EXTT13=
EXTT14=
EXTT15=
EXTT16=
EXTT17=
EXTT18=
EXTT19=
PLAYORDER=
